<!-- <svg xmlns="http://www.w3.org/2000/svg" viewBox="0 0 261.76 226.69"><path d="M161.096.001l-30.225 52.351L100.647.001H-.005l130.877 226.688L261.749.001z" fill="#41b883"/><path d="M161.096.001l-30.225 52.351L100.647.001H52.346l78.526 136.01L209.398.001z" fill="#34495e"/></svg> -->
<svg width="107" height="21" viewBox="0 0 107 21" fill="none" xmlns="http://www.w3.org/2000/svg">
<path d="M0 20.1505H9.6998V15.2052C16.6799 9.3902 20.5934 6.12996 27.5736 0.314941H17.2744L9.6998 6.70427V0.314941H0V20.1505ZM15.5714 20.1505H28.1458L15.2717 6.60891L8.32384 12.4806L15.5714 20.1505Z" fill="white"/>
<path d="M28.494 20.1505H38.33V0.314941H28.494V20.1505Z" fill="white"/>
<path d="M41.0759 20.1505L48.2145 20.1369L48.1873 13.1481C48.1873 13.0482 48.1691 12.9392 48.1328 12.8211C48.1055 12.7031 48.0692 12.5714 48.0238 12.4261H48.16C48.2236 12.5986 48.3008 12.7803 48.3916 12.971C48.4824 13.1526 48.6005 13.357 48.7458 13.584L53.8954 20.1505H62.3146V0.314941H55.2578V6.26833C55.2578 6.49538 55.2669 6.69065 55.285 6.85413C55.3032 7.00853 55.3395 7.19925 55.394 7.42631L55.2714 7.45356C55.1806 7.30824 55.0943 7.15838 55.0126 7.00399C54.9308 6.84051 54.8355 6.66794 54.7265 6.4863L49.9992 0.314941H41.0759V20.1505Z" fill="white"/>
<path fill-rule="evenodd" clip-rule="evenodd" d="M96.2135 6.58763H75.2881C73.362 6.58763 71.8005 8.14906 71.8005 10.0752C71.8005 12.0013 73.362 13.5628 75.2881 13.5628H96.2135C98.1396 13.5628 99.7011 12.0013 99.7011 10.0752C99.7011 8.14906 98.1396 6.58763 96.2135 6.58763ZM75.2881 0C69.7237 0 65.2129 4.51082 65.2129 10.0752C65.2129 15.6396 69.7237 20.1504 75.2881 20.1504H96.2135C101.778 20.1504 106.289 15.6396 106.289 10.0752C106.289 4.51082 101.778 0 96.2135 0H75.2881Z" fill="white"/>
</svg>